{"title":"Cheap Trick - Live At Budokan FLAC","uid":4863623,"size":316405436,"categoryP":"audio","categoryS":"flac","magnet":"?xt=urn:btih:3b372af48f8d60695d4a720c41c37e42ce121c51&amp;dn=Cheap+Trick+-+Live+At+Budokan+FLAC&amp;tr=udp%3A%2F%2Ftracker.openbittorrent.com%3A80&amp;tr=udp%3A%2F%2Fopen.demonii.com%3A1337&amp;tr=udp%3A%2F%2Ftracker.coppersurfer.tk%3A6969&amp;tr=udp%3A%2F%2Fexodus.desync.com%3A6969","seeders":1,"leechers":1,"uploader":"sowingmyseed","files":12,"time":1240372113,"description":"Exact Audio Copy V0.99 prebeta 4 from 23. January 2008\n\nEAC extraction logfile from 21. April 2009, 13:56\n\nCheap Trick / At Budokan\n\nUsed drive  : ATAPI   DVD D  DH16D3P   Adapter: 0  ID: 1\n\nRead mode               : Secure\nUtilize accurate stream : Yes\nDefeat audio cache      : No\nMake use of C2 pointers : No\n\nRead offset correction                      : 6\nOverread into Lead-In and Lead-Out          : No\nFill up missing offset samples with silence : Yes\nDelete leading and trailing silent blocks   : No\nNull samples used in CRC calculations       : No\nUsed interface                              : Installed external ASPI interface\nGap handling                                : Not detected, thus appended to previous track\n\nUsed output format : Internal WAV Routines\nSample format      : 44.100 Hz; 16 Bit; Stereo\n\n\nTOC of the extracted CD\n\n     Track |   Start  |  Length  | Start sector | End sector \n    ---------------------------------------------------------\n        1  |  0:00.00 |  2:27.52 |         0    |    11076   \n        2  |  2:27.52 |  3:17.60 |     11077    |    25911   \n        3  |  5:45.37 |  3:01.03 |     25912    |    39489   \n        4  |  8:46.40 |  3:55.67 |     39490    |    57181   \n        5  | 12:42.32 |  8:46.18 |     57182    |    96649   \n        6  | 21:28.50 |  5:09.20 |     96650    |   119844   \n        7  | 26:37.70 |  3:45.07 |    119845    |   136726   \n        8  | 30:23.02 |  4:25.15 |    136727    |   156616   \n        9  | 34:48.17 |  3:08.63 |    156617    |   170779   \n       10  | 37:57.05 |  4:01.30 |    170780    |   188884   \n\n\nTrack  1\n\n     Filename E:MusicCheap TrickAt BudokanCheap Trick - At Budokan - 01. Hello There.wav\n\n     Peak level 99.8 %\n     Track quality 100.0 %\n     Copy CRC 6752DE66\n     Accurately ripped (confidence 8)  [D386E803]\n     Copy OK\n\nTrack  2\n\n     Filename E:MusicCheap TrickAt BudokanCheap Trick - At Budokan - 02. Come On, Come On.wav\n\n     Peak level 99.8 %\n     Track quality 100.0 %\n     Copy CRC CD781473\n     Accurately ripped (confidence 8)  [4CA323CB]\n     Copy OK\n\nTrack  3\n\n     Filename E:MusicCheap TrickAt BudokanCheap Trick - At Budokan - 03. Lookout.wav\n\n     Peak level 99.8 %\n     Track quality 100.0 %\n     Copy CRC 44B100E6\n     Accurately ripped (confidence 8)  [82921250]\n     Copy OK\n\nTrack  4\n\n     Filename E:MusicCheap TrickAt BudokanCheap Trick - At Budokan - 04. Big Eyes.wav\n\n     Peak level 99.8 %\n     Track quality 100.0 %\n     Copy CRC 8CF561C3\n     Accurately ripped (confidence 8)  [990BE233]\n     Copy OK\n\nTrack  5\n\n     Filename E:MusicCheap TrickAt BudokanCheap Trick - At Budokan - 05. Need Your Love.wav\n\n     Peak level 99.8 %\n     Track quality 100.0 %\n     Copy CRC B22DAD2F\n     Accurately ripped (confidence 8)  [76E0D54F]\n     Copy OK\n\nTrack  6\n\n     Filename E:MusicCheap TrickAt BudokanCheap Trick - At Budokan - 06. Ain't That A Shame.wav\n\n     Peak level 99.8 %\n     Track quality 100.0 %\n     Copy CRC F443A43F\n     Accurately ripped (confidence 8)  [25FE74F8]\n     Copy OK\n\nTrack  7\n\n     Filename E:MusicCheap TrickAt BudokanCheap Trick - At Budokan - 07. I Want You To Want Me.wav\n\n     Peak level 99.8 %\n     Track quality 100.0 %\n     Copy CRC 1F5D70C6\n     Accurately ripped (confidence 8)  [44EB80CC]\n     Copy OK\n\nTrack  8\n\n     Filename E:MusicCheap TrickAt BudokanCheap Trick - At Budokan - 08. Surrender.wav\n\n     Peak level 99.8 %\n     Track quality 100.0 %\n     Copy CRC 87FE19A4\n     Accurately ripped (confidence 8)  [7F7EA5A5]\n     Copy OK\n\nTrack  9\n\n     Filename E:MusicCheap TrickAt BudokanCheap Trick - At Budokan - 09. Goodnight.wav\n\n     Peak level 99.8 %\n     Track quality 100.0 %\n     Copy CRC 4578C180\n     Accurately ripped (confidence 8)  [8D277D54]\n     Copy OK\n\nTrack 10\n\n     Filename E:MusicCheap TrickAt BudokanCheap Trick - At Budokan - 10. Clock Strikes Ten.wav\n\n     Peak level 99.8 %\n     Track quality 99.9 %\n     Copy CRC 31845903\n     Accurately ripped (confidence 8)  [7EC17572]\n     Copy OK\n\n\nAll tracks accurately ripped\n\nNo errors occurred\n\nEnd of status report\n","torrent":{"xt":"urn:btih:3b372af48f8d60695d4a720c41c37e42ce121c51","amp;dn":"Cheap+Trick+-+Live+At+Budokan+FLAC","amp;tr":["udp%3A%2F%2Ftracker.openbittorrent.com%3A80","udp%3A%2F%2Fopen.demonii.com%3A1337","udp%3A%2F%2Ftracker.coppersurfer.tk%3A6969","udp%3A%2F%2Fexodus.desync.com%3A6969"],"infoHash":"3b372af48f8d60695d4a720c41c37e42ce121c51","infoHashBuffer":{"type":"Buffer","data":[59,55,42,244,143,141,96,105,93,74,114,12,65,195,126,66,206,18,28,81]},"announce":[],"urlList":[]}}